<svg xmlns="http://www.w3.org/2000/svg" viewBox="0 0 295.17 56.69"><defs><style>.cls-1{fill:#424a60;}.cls-2{fill:#0eaf1a;}.cls-3{fill:#0ca3ef;}.cls-4{fill:#43b05c;}.cls-5{fill:#7383bf;}.cls-6{fill:#57d8ab;}.cls-7{fill:#f22f20;}.cls-8{fill:#ffbd03;}.cls-9{fill:#0b7af4;}.cls-10{fill:#f7f70d;}.cls-10,.cls-11{stroke:#000;stroke-miterlimit:10;stroke-width:0.25px;}.cls-11{fill:#2181f4;}</style></defs><g id="Layer_2" data-name="Layer 2"><g id="Layer_1-2" data-name="Layer 1"><rect class="cls-1" x="4.77" y="25.23" width="22.69" height="2.14" transform="translate(-4.28 3.16) rotate(-9.9)"/><circle class="cls-2" cx="6.42" cy="27.99" r="3.21"/><rect class="cls-1" x="28.88" y="1.74" width="2.14" height="19.25"/><circle class="cls-3" cx="30.35" cy="3.15" r="3.15"/><rect class="cls-1" x="28.88" y="29.95" width="2.14" height="19.25"/><rect class="cls-1" x="29.84" y="13.37" width="22.69" height="2.14" transform="translate(1.85 33.35) rotate(-45)"/><rect class="cls-1" x="1.99" y="37.44" width="30.25" height="2.14" transform="translate(-22.22 23.38) rotate(-45)"/><rect class="cls-1" x="18.72" y="7.19" width="2.14" height="16.64" transform="translate(-5.17 18.53) rotate(-45)"/><rect class="cls-1" x="39.04" y="24.49" width="2.14" height="22.69" transform="translate(-13.59 38.86) rotate(-45)"/><circle class="cls-4" cx="51.34" cy="5.35" r="5.35"/><circle class="cls-5" cx="29.95" cy="51.34" r="5.35"/><circle class="cls-6" cx="5.35" cy="49.2" r="5.35"/><circle class="cls-7" cx="12.84" cy="8.56" r="3.21"/><circle class="cls-8" cx="47.06" cy="42.79" r="3.21"/><circle class="cls-9" cx="29.95" cy="25.67" r="7.49"/><path class="cls-10" d="M85,55,73.2,12.32h-.31q.64,13,.64,17.36V55H64.22V.61H78.41L90,42.17h.2L102.59.61h14.19V55h-9.72V29.24c0-1.22,0-2.62,0-4.21s.18-5.79.45-12.63h-.3L94.58,55Z"/><path class="cls-10" d="M129.15,55V.61h10.43V55Z"/><path class="cls-11" d="M191.5,55H179.66l-12.88-22.9-4.4,3.49V55H152V.61h10.43V25.48l4.1-6.39L179.79.61h11.57L174.21,24.66Z"/><path class="cls-11" d="M241.3,55H228.05L206.66,13.85h-.3q.63,10.89.64,15.53V55h-9.32V.61h13.15l21.35,40.7h.24q-.51-10.59-.5-15V.61h9.38Z"/><path class="cls-11" d="M283.77,55,280.2,42H262.28L258.72,55H247.49L264.84.39h12.74L295,55Zm-6-22.6q-5-17.58-5.57-19.89c-.41-1.53-.71-2.75-.89-3.64q-1.11,4.76-6.36,23.53Z"/></g></g></svg>